<svg width="136" height="90" viewBox="0 0 136 90" fill="none" xmlns="http://www.w3.org/2000/svg">
<path d="M0 0H68.1397V68.1397H0V0Z" fill="black"/>
<path d="M14.4006 24.181C14.4006 24.0222 14.4818 23.9146 14.6441 23.8582L14.8981 23.7894C14.9898 23.7576 15.0569 23.717 15.0992 23.6676C15.1416 23.6147 15.1627 23.5477 15.1627 23.4665V18.0789C15.1627 17.9977 15.1416 17.9324 15.0992 17.883C15.0569 17.8301 14.9898 17.7878 14.8981 17.756L14.6441 17.6872C14.4818 17.6272 14.4006 17.5196 14.4006 17.3644C14.4006 17.2691 14.4306 17.1968 14.4906 17.1474C14.5541 17.0945 14.6494 17.068 14.7764 17.068H17.8195C18.4722 17.068 19.065 17.165 19.5978 17.3591C20.1305 17.5496 20.5892 17.8213 20.9738 18.1741C21.3584 18.5269 21.6547 18.945 21.8629 19.4284C22.0711 19.9118 22.1752 20.4463 22.1752 21.032C22.1752 21.6953 22.0182 22.2881 21.7041 22.8103C21.3937 23.3289 20.9491 23.7364 20.3705 24.0328C19.7953 24.3292 19.1109 24.4774 18.317 24.4774H14.7764C14.6494 24.4774 14.5541 24.4509 14.4906 24.398C14.4306 24.3451 14.4006 24.2727 14.4006 24.181ZM18.0894 23.8476C18.4775 23.8476 18.8198 23.747 19.1162 23.5459C19.4125 23.3448 19.6454 23.0343 19.8148 22.6144C19.9841 22.1911 20.0688 21.653 20.0688 21.0003C20.0688 20.4816 20.0123 20.0194 19.8994 19.6137C19.7865 19.2079 19.6225 18.8621 19.4072 18.5763C19.192 18.2905 18.9309 18.0736 18.624 17.9254C18.3205 17.7737 17.9765 17.6978 17.5919 17.6978H17.2056V23.3183C17.2056 23.5018 17.255 23.6359 17.3538 23.7206C17.4526 23.8052 17.5972 23.8476 17.7878 23.8476H18.0894Z" fill="white"/>
<path d="M27.9749 21.3178C27.9749 21.5295 27.9149 21.6936 27.795 21.81C27.6785 21.9264 27.5092 21.9846 27.2869 21.9846H24.0638V21.5136H25.8526C26.0361 21.5136 26.1278 21.4289 26.1278 21.2596C26.1278 20.7974 26.059 20.4587 25.9214 20.2434C25.7874 20.0247 25.6074 19.9153 25.3816 19.9153C25.2087 19.9153 25.0553 19.9718 24.9212 20.0847C24.7906 20.1976 24.6865 20.3652 24.6089 20.5875C24.5313 20.8062 24.4925 21.0761 24.4925 21.3972C24.4925 22.064 24.6442 22.558 24.9476 22.8791C25.2546 23.1966 25.6656 23.3554 26.1808 23.3554C26.456 23.3554 26.7012 23.3095 26.9164 23.2178C27.1316 23.126 27.3151 22.9814 27.4668 22.7838C27.548 22.7062 27.6097 22.6533 27.6521 22.625C27.6979 22.5968 27.742 22.5827 27.7844 22.5827C27.8444 22.5827 27.8885 22.6127 27.9167 22.6727C27.9484 22.7291 27.9643 22.7997 27.9643 22.8844C27.9537 23.1948 27.8461 23.4824 27.6415 23.747C27.4368 24.0081 27.1563 24.218 26.8 24.3768C26.4436 24.5356 26.0308 24.615 25.5616 24.615C25.0394 24.615 24.5719 24.5091 24.1591 24.2974C23.7498 24.0857 23.427 23.7911 23.1906 23.4136C22.9542 23.0325 22.836 22.588 22.836 22.0799C22.836 21.526 22.9453 21.0408 23.1641 20.6245C23.3864 20.2046 23.7057 19.8783 24.122 19.6454C24.5419 19.409 25.0447 19.2908 25.6304 19.2908C26.1349 19.2908 26.5618 19.3773 26.9111 19.5501C27.2604 19.723 27.525 19.9629 27.705 20.2699C27.8849 20.5733 27.9749 20.9226 27.9749 21.3178Z" fill="white"/>
<path d="M34.0652 24.6361C33.7971 24.6361 33.566 24.6062 33.3719 24.5462C33.1814 24.4862 33.0226 24.428 32.8956 24.3715C32.7721 24.3115 32.6751 24.2816 32.6045 24.2816C32.5269 24.2816 32.4599 24.301 32.4034 24.3398C32.3469 24.3751 32.2905 24.4192 32.234 24.4721C32.1811 24.5215 32.1264 24.5638 32.07 24.5991C32.0135 24.6379 31.95 24.6573 31.8795 24.6573C31.7877 24.6573 31.7119 24.6309 31.6519 24.5779C31.5954 24.525 31.5566 24.4368 31.5354 24.3133L31.202 22.5298C31.1879 22.4416 31.2003 22.3675 31.2391 22.3075C31.2814 22.244 31.3484 22.1946 31.4402 22.1593C31.539 22.1275 31.6254 22.1311 31.6995 22.1699C31.7736 22.2052 31.8389 22.2757 31.8953 22.3816C32.1106 22.7979 32.3275 23.1225 32.5463 23.3554C32.765 23.5882 32.9891 23.7541 33.2184 23.8529C33.4478 23.9481 33.6824 23.9958 33.9223 23.9958C34.2505 23.9958 34.5098 23.9146 34.7003 23.7523C34.8944 23.5865 34.9932 23.3624 34.9967 23.0802C34.9967 22.8896 34.9508 22.7221 34.8591 22.5774C34.7709 22.4292 34.598 22.2863 34.3404 22.1487C34.0829 22.0076 33.7018 21.8594 33.1973 21.7042C32.6504 21.5348 32.2129 21.3372 31.8847 21.1114C31.5601 20.8856 31.3237 20.6157 31.1756 20.3017C31.0274 19.9841 30.9533 19.6119 30.9533 19.185C30.9533 18.7439 31.0591 18.3541 31.2708 18.0153C31.4861 17.6731 31.7877 17.4067 32.1758 17.2162C32.5675 17.0257 33.0261 16.9304 33.5519 16.9304C33.8553 16.9304 34.1093 16.9604 34.314 17.0204C34.5186 17.0768 34.6897 17.135 34.8273 17.195C34.9649 17.2515 35.0831 17.2797 35.1819 17.2797C35.2631 17.2797 35.3319 17.2497 35.3883 17.1897C35.4483 17.1262 35.51 17.0645 35.5735 17.0045C35.6406 16.941 35.727 16.9092 35.8329 16.9092C35.9281 16.9092 36.0058 16.9392 36.0657 16.9992C36.1293 17.0557 36.1857 17.1668 36.2351 17.3326L36.722 19.0844C36.7502 19.1938 36.7449 19.2908 36.7061 19.3755C36.6708 19.4602 36.6038 19.5184 36.505 19.5501C36.4062 19.5819 36.3198 19.5784 36.2457 19.5396C36.1716 19.5007 36.1081 19.4337 36.0552 19.3384C35.8293 18.8939 35.5894 18.5428 35.3354 18.2853C35.0814 18.0277 34.8238 17.8442 34.5627 17.7348C34.3016 17.6255 34.0423 17.5708 33.7847 17.5708C33.4636 17.5708 33.2114 17.6625 33.0279 17.846C32.8444 18.0259 32.7527 18.2606 32.7527 18.5499C32.7527 18.7298 32.795 18.8974 32.8797 19.0527C32.9644 19.2044 33.132 19.3561 33.3825 19.5078C33.6365 19.656 34.0088 19.8165 34.4992 19.9894C35.0461 20.1835 35.4801 20.3952 35.8011 20.6245C36.1257 20.8503 36.3604 21.1096 36.505 21.4025C36.6497 21.6918 36.722 22.0305 36.722 22.4186C36.722 22.8279 36.6162 23.2001 36.4045 23.5353C36.1928 23.8705 35.8893 24.1387 35.4942 24.3398C35.099 24.5374 34.6227 24.6361 34.0652 24.6361Z" fill="white"/>
<path d="M40.4048 19.2908C40.9764 19.2908 41.4756 19.4037 41.9025 19.6295C42.333 19.8518 42.6682 20.1641 42.9081 20.5663C43.148 20.9685 43.268 21.436 43.268 21.9688C43.268 22.4663 43.1427 22.9161 42.8922 23.3183C42.6452 23.717 42.3012 24.0328 41.8602 24.2657C41.4227 24.4985 40.9146 24.615 40.336 24.615C39.7679 24.615 39.2687 24.5021 38.8382 24.2763C38.4113 24.0469 38.0779 23.7311 37.838 23.3289C37.598 22.9267 37.4781 22.4627 37.4781 21.937C37.4781 21.4289 37.6016 20.9756 37.8485 20.5769C38.099 20.1782 38.4431 19.8642 38.8806 19.6348C39.3216 19.4055 39.8297 19.2908 40.4048 19.2908ZM40.7858 23.9693C40.9728 23.934 41.1192 23.8317 41.2251 23.6623C41.3345 23.493 41.3962 23.2531 41.4103 22.9426C41.428 22.6286 41.3927 22.244 41.3045 21.7888C41.2163 21.3407 41.1051 20.9738 40.9711 20.688C40.837 20.3987 40.6835 20.1923 40.5106 20.0688C40.3413 19.9418 40.1578 19.8977 39.9602 19.9365C39.7732 19.9718 39.625 20.0741 39.5156 20.2434C39.4063 20.4128 39.3445 20.6527 39.3304 20.9632C39.3163 21.2737 39.3533 21.6583 39.4416 22.117C39.5298 22.5615 39.6409 22.9285 39.775 23.2178C39.909 23.5071 40.0608 23.7135 40.2301 23.837C40.403 23.9605 40.5882 24.0046 40.7858 23.9693Z" fill="white"/>
<path d="M46.342 16.9463V23.5142C46.342 23.6376 46.3544 23.7276 46.3791 23.7841C46.4073 23.837 46.4514 23.874 46.5114 23.8952L46.6702 23.9481C46.7442 23.9764 46.7972 24.0134 46.8289 24.0593C46.8607 24.1016 46.8766 24.1528 46.8766 24.2128C46.8766 24.2939 46.8501 24.3592 46.7972 24.4086C46.7442 24.4544 46.6578 24.4774 46.5378 24.4774H44.2886C44.1686 24.4774 44.0822 24.4544 44.0292 24.4086C43.9763 24.3592 43.9499 24.2939 43.9499 24.2128C43.9499 24.1528 43.9657 24.1016 43.9975 24.0593C44.0292 24.0134 44.0822 23.9764 44.1563 23.9481L44.3203 23.8952C44.3803 23.874 44.4226 23.837 44.4473 23.7841C44.472 23.7276 44.4844 23.6376 44.4844 23.5142V17.973C44.4844 17.8742 44.4703 17.8036 44.4421 17.7613C44.4138 17.7154 44.3697 17.6872 44.3097 17.6766L44.1139 17.6449C44.0434 17.6272 43.9922 17.599 43.9604 17.5602C43.9322 17.5214 43.9181 17.4738 43.9181 17.4173C43.9181 17.3467 43.9375 17.2903 43.9763 17.2479C44.0151 17.2056 44.0892 17.165 44.1986 17.1262L45.2994 16.7134C45.4582 16.6534 45.5834 16.6111 45.6752 16.5864C45.7704 16.5617 45.8534 16.5493 45.9239 16.5493C46.0651 16.5493 46.1691 16.5864 46.2362 16.6605C46.3067 16.7346 46.342 16.8298 46.342 16.9463Z" fill="white"/>
<path d="M50.6869 23.7841V23.6676L50.5546 23.657V20.3599C50.5546 20.1694 50.5035 20.0194 50.4011 19.91C50.3023 19.8006 50.1665 19.746 49.9936 19.746C49.8419 19.746 49.7202 19.7795 49.6284 19.8465C49.5402 19.9136 49.4961 19.9982 49.4961 20.1006V20.6245C49.4961 20.8785 49.4097 21.0744 49.2368 21.212C49.0639 21.3496 48.8205 21.4184 48.5065 21.4184C48.2383 21.4184 48.0372 21.3601 47.9031 21.2437C47.769 21.1237 47.702 20.9579 47.702 20.7462C47.702 20.5204 47.799 20.2964 47.9931 20.0741C48.1907 19.8483 48.4835 19.663 48.8716 19.5184C49.2633 19.3702 49.7484 19.2961 50.327 19.2961C51.0256 19.2961 51.5443 19.4302 51.883 19.6983C52.2217 19.9665 52.3911 20.3299 52.3911 20.7886V23.4348C52.3911 23.5159 52.4087 23.5812 52.444 23.6306C52.4828 23.6765 52.5393 23.6994 52.6134 23.6994C52.6804 23.6994 52.7316 23.6817 52.7668 23.6465C52.8057 23.6112 52.8409 23.5759 52.8727 23.5406C52.8939 23.5159 52.915 23.4965 52.9362 23.4824C52.9609 23.4648 52.9891 23.4559 53.0209 23.4559C53.0738 23.4559 53.1108 23.4753 53.132 23.5142C53.1567 23.5494 53.1691 23.5953 53.1691 23.6518C53.1691 23.7894 53.1197 23.9323 53.0209 24.0804C52.9256 24.2286 52.781 24.3556 52.5869 24.4615C52.3928 24.5638 52.1512 24.615 51.8618 24.615C51.509 24.615 51.225 24.5391 51.0098 24.3874C50.7945 24.2322 50.6869 24.031 50.6869 23.7841ZM47.4956 23.3607C47.4956 22.902 47.702 22.5351 48.1148 22.2599C48.5276 21.9846 49.108 21.847 49.856 21.847C50.0748 21.847 50.2688 21.8647 50.4382 21.9C50.6075 21.9317 50.7504 21.9776 50.8669 22.0376L50.7187 22.4292C50.6199 22.3798 50.5229 22.3428 50.4276 22.3181C50.3359 22.2898 50.2335 22.2757 50.1206 22.2757C49.8878 22.2757 49.7043 22.3428 49.5702 22.4768C49.4397 22.6109 49.3744 22.7997 49.3744 23.0431C49.3744 23.2901 49.4344 23.4789 49.5544 23.6094C49.6743 23.74 49.8296 23.8052 50.0201 23.8052C50.1647 23.8052 50.3023 23.7717 50.4329 23.7047C50.567 23.6341 50.6763 23.5459 50.761 23.4401L50.8775 23.7947C50.6975 24.0557 50.4452 24.2586 50.1206 24.4033C49.7996 24.5444 49.4556 24.615 49.0886 24.615C48.6123 24.615 48.2277 24.4985 47.9349 24.2657C47.642 24.0293 47.4956 23.7276 47.4956 23.3607Z" fill="white"/>
<path d="M17.7031 30.6483C17.9148 30.6483 18.0877 30.7577 18.2217 30.9764C18.3558 31.1952 18.4228 31.4951 18.4228 31.8762C18.4228 32.2854 18.3629 32.633 18.2429 32.9188C18.1229 33.2045 17.9307 33.3792 17.666 33.4427L17.6978 33.6862C18.3293 33.6015 18.8357 33.478 19.2167 33.3157C19.5978 33.1499 19.873 32.9452 20.0423 32.7018C20.2152 32.4548 20.3017 32.1743 20.3017 31.8603C20.3017 31.5251 20.1993 31.2305 19.9947 30.9764C19.7936 30.7224 19.5113 30.5231 19.1479 30.3784C18.7845 30.2337 18.3576 30.1614 17.8671 30.1614C17.2638 30.1614 16.7522 30.2584 16.3323 30.4525C15.916 30.6466 15.6002 30.9094 15.385 31.2411C15.1733 31.5692 15.0675 31.9361 15.0675 32.3419C15.0675 32.7582 15.1733 33.1199 15.385 33.4268C15.6002 33.7338 15.9125 33.9631 16.3218 34.1148C16.417 34.1466 16.5335 34.2225 16.6711 34.3424C16.8087 34.4624 16.9904 34.6582 17.2162 34.9299L19.2379 37.3961C19.3331 37.509 19.4355 37.5884 19.5448 37.6343C19.6542 37.6766 19.783 37.6978 19.9312 37.6978H21.6618C21.7853 37.6978 21.8788 37.6731 21.9423 37.6237C22.0093 37.5708 22.0429 37.4932 22.0429 37.3908C22.0429 37.2956 22.0146 37.2268 21.9582 37.1844C21.9017 37.1386 21.8241 37.1103 21.7253 37.0998C21.6336 37.0892 21.5471 37.0627 21.466 37.0204C21.3884 36.978 21.3107 36.911 21.2331 36.8193L19.222 34.3318C19.0703 34.1413 18.9256 33.9861 18.788 33.8661C18.6504 33.7461 18.5075 33.6473 18.3593 33.5697C18.2112 33.4921 18.0471 33.4215 17.8671 33.358C17.5602 33.2522 17.3361 33.0564 17.195 32.7706C17.0539 32.4848 16.9833 32.1549 16.9833 31.7809C16.9833 31.4528 17.0433 31.1828 17.1633 30.9712C17.2867 30.7559 17.4667 30.6483 17.7031 30.6483ZM16.8933 34.1942L16.8404 33.9825C16.2794 34.0178 15.8049 34.1342 15.4168 34.3318C15.0287 34.5294 14.734 34.7782 14.5329 35.0781C14.3318 35.3744 14.2313 35.6937 14.2313 36.036C14.2313 36.3676 14.323 36.6711 14.5065 36.9463C14.6935 37.2215 14.9634 37.442 15.3162 37.6078C15.669 37.7737 16.1012 37.8566 16.6128 37.8566C17.1597 37.8566 17.6202 37.7454 17.9942 37.5232C18.3682 37.3009 18.6963 36.9869 18.9786 36.5811L18.5975 36.2689C18.4423 36.5123 18.2605 36.6905 18.0524 36.8034C17.8442 36.9128 17.6096 36.9675 17.3485 36.9675C17.1086 36.9675 16.8986 36.9057 16.7187 36.7822C16.5423 36.6552 16.4064 36.4805 16.3112 36.2583C16.2194 36.036 16.1736 35.7784 16.1736 35.4856C16.1736 35.288 16.2036 35.0939 16.2635 34.9034C16.3271 34.7094 16.4135 34.5471 16.5229 34.4165C16.6323 34.2824 16.7557 34.2083 16.8933 34.1942ZM19.8306 35.7079L20.1535 36.0677L20.8309 35.1045C21.0285 34.8505 21.189 34.6653 21.3125 34.5488C21.4395 34.4289 21.5683 34.3354 21.6988 34.2683C21.7941 34.2119 21.8594 34.1554 21.8947 34.099C21.9335 34.0425 21.9529 33.9772 21.9529 33.9031C21.9529 33.7091 21.8276 33.6121 21.5771 33.6121H20.1005C19.9982 33.6121 19.9118 33.6421 19.8412 33.702C19.7742 33.762 19.7407 33.8343 19.7407 33.919C19.7407 33.9684 19.7548 34.0161 19.783 34.0619C19.8148 34.1078 19.8659 34.1448 19.9365 34.1731L20.1482 34.2419C20.2575 34.2842 20.3316 34.3495 20.3705 34.4377C20.4093 34.5224 20.4128 34.6229 20.381 34.7393C20.3528 34.8558 20.2875 34.9846 20.1852 35.1257L19.8306 35.7079Z" fill="white"/>
<path d="M21.5083 49.1612C21.5083 49.6904 21.2807 50.1191 20.8256 50.4472C20.3705 50.7753 19.6771 50.9394 18.7457 50.9394H14.7764C14.6494 50.9394 14.5541 50.9129 14.4906 50.86C14.4306 50.8071 14.4006 50.7348 14.4006 50.643C14.4006 50.4878 14.4818 50.3802 14.6441 50.3202L14.8981 50.2514C14.9863 50.2196 15.0516 50.1791 15.0939 50.1297C15.1398 50.0767 15.1627 50.0097 15.1627 49.9286V44.5409C15.1627 44.4562 15.1398 44.3892 15.0939 44.3398C15.0516 44.2904 14.9863 44.2498 14.8981 44.218L14.6441 44.1492C14.4818 44.0893 14.4006 43.9817 14.4006 43.8264C14.4006 43.7311 14.4306 43.6588 14.4906 43.6094C14.5541 43.5565 14.6494 43.53 14.7764 43.53H17.8724C18.5463 43.53 19.1232 43.6218 19.6031 43.8052C20.0829 43.9852 20.4498 44.2375 20.7039 44.5621C20.9579 44.8867 21.0849 45.2659 21.0849 45.6999C21.0849 46.0527 20.9808 46.3685 20.7727 46.6473C20.568 46.9225 20.2664 47.1395 19.8677 47.2982C19.469 47.4535 18.9821 47.5311 18.407 47.5311L18.6769 47.3459C19.2449 47.3459 19.7407 47.4235 20.164 47.5787C20.5874 47.7304 20.9173 47.9439 21.1537 48.2191C21.3901 48.4908 21.5083 48.8048 21.5083 49.1612ZM18.0259 47.7745H16.6552V47.2771H17.8354C18.1247 47.2771 18.3664 47.2241 18.5605 47.1183C18.758 47.0089 18.9062 46.8448 19.005 46.6261C19.1073 46.4073 19.1585 46.1357 19.1585 45.8111C19.1585 45.4618 19.0932 45.1601 18.9627 44.9061C18.8357 44.652 18.6504 44.4562 18.407 44.3186C18.1635 44.1775 17.8689 44.1069 17.5231 44.1069H17.2056V49.8015C17.2056 49.9921 17.262 50.1332 17.375 50.2249C17.4879 50.3167 17.6502 50.3625 17.8619 50.3625H18.2852C18.5393 50.3625 18.7563 50.3131 18.9362 50.2143C19.1162 50.112 19.252 49.9656 19.3437 49.7751C19.439 49.5845 19.4866 49.3587 19.4866 49.0976C19.4866 48.6919 19.3596 48.3708 19.1056 48.1344C18.8551 47.8945 18.4952 47.7745 18.0259 47.7745Z" fill="white"/>
<path d="M27.179 47.7798C27.179 47.9915 27.119 48.1556 26.999 48.272C26.8826 48.3885 26.7132 48.4467 26.491 48.4467H23.2679V47.9757H25.0567C25.2402 47.9757 25.3319 47.891 25.3319 47.7216C25.3319 47.2594 25.2631 46.9207 25.1255 46.7055C24.9914 46.4867 24.8115 46.3773 24.5857 46.3773C24.4128 46.3773 24.2593 46.4338 24.1252 46.5467C23.9947 46.6596 23.8906 46.8272 23.813 47.0495C23.7354 47.2682 23.6966 47.5382 23.6966 47.8592C23.6966 48.5261 23.8483 49.02 24.1517 49.3411C24.4587 49.6586 24.8697 49.8174 25.3848 49.8174C25.66 49.8174 25.9053 49.7715 26.1205 49.6798C26.3357 49.5881 26.5192 49.4434 26.6709 49.2458C26.752 49.1682 26.8138 49.1153 26.8561 49.0871C26.902 49.0588 26.9461 49.0447 26.9884 49.0447C27.0484 49.0447 27.0925 49.0747 27.1208 49.1347C27.1525 49.1911 27.1684 49.2617 27.1684 49.3464C27.1578 49.6569 27.0502 49.9444 26.8455 50.209C26.6409 50.4701 26.3604 50.6801 26.0041 50.8388C25.6477 50.9976 25.2349 51.077 24.7656 51.077C24.2434 51.077 23.776 50.9712 23.3631 50.7595C22.9539 50.5478 22.631 50.2532 22.3946 49.8756C22.1582 49.4946 22.04 49.05 22.04 48.5419C22.04 47.988 22.1494 47.5029 22.3682 47.0865C22.5905 46.6667 22.9098 46.3403 23.3261 46.1074C23.746 45.871 24.2487 45.7528 24.8344 45.7528C25.339 45.7528 25.7659 45.8393 26.1152 46.0122C26.4645 46.1851 26.7291 46.425 26.9091 46.7319C27.089 47.0354 27.179 47.3847 27.179 47.7798Z" fill="white"/>
<path d="M30.0519 48.0921C30.0519 47.5699 30.1225 47.1359 30.2636 46.7902C30.4083 46.4409 30.5988 46.1815 30.8352 46.0122C31.0716 45.8393 31.3256 45.7528 31.5973 45.7528C31.9501 45.7528 32.2218 45.8569 32.4123 46.0651C32.6029 46.2697 32.6981 46.5732 32.6981 46.9754C32.6981 47.3635 32.6187 47.6511 32.46 47.8381C32.3047 48.0251 32.1001 48.1185 31.846 48.1185C31.592 48.1185 31.3997 48.0515 31.2692 47.9174C31.1422 47.7834 31.0786 47.5981 31.0786 47.3617V47.1553C31.0751 47.0565 31.0522 46.9824 31.0098 46.9331C30.9675 46.8801 30.8987 46.8537 30.8034 46.8537C30.7046 46.8537 30.6129 46.8942 30.5282 46.9754C30.4436 47.0565 30.3748 47.1853 30.3218 47.3617C30.2724 47.5346 30.2477 47.7604 30.2477 48.0392L30.0519 48.0921ZM30.1366 46.1657L30.2477 47.33V49.9762C30.2477 50.0856 30.2654 50.1649 30.3007 50.2143C30.3395 50.2637 30.4171 50.299 30.5335 50.3202L30.9622 50.3943C31.0539 50.4119 31.121 50.4437 31.1633 50.4895C31.2092 50.5319 31.2321 50.5936 31.2321 50.6748C31.2321 50.7559 31.2021 50.8212 31.1422 50.8706C31.0857 50.9165 31.001 50.9394 30.8881 50.9394H28.189C28.0726 50.9394 27.9879 50.9165 27.935 50.8706C27.882 50.8212 27.8556 50.7559 27.8556 50.6748C27.8556 50.6148 27.8714 50.5636 27.9032 50.5213C27.935 50.4754 27.9879 50.4384 28.062 50.4102L28.226 50.3572C28.2825 50.3361 28.3231 50.299 28.3478 50.2461C28.376 50.1896 28.3901 50.0997 28.3901 49.9762V47.203C28.3901 47.1042 28.376 47.0336 28.3478 46.9913C28.3195 46.9489 28.2754 46.9207 28.2155 46.9066L28.0143 46.8748C27.9473 46.8572 27.8979 46.8307 27.8662 46.7954C27.8379 46.7566 27.8238 46.7072 27.8238 46.6473C27.8238 46.5767 27.8432 46.5202 27.882 46.4779C27.9244 46.4356 27.9985 46.395 28.1043 46.3562L29.1734 45.9592C29.3815 45.8781 29.5315 45.8252 29.6232 45.8005C29.715 45.7758 29.7873 45.7634 29.8402 45.7634C29.9284 45.7634 29.9937 45.7952 30.036 45.8587C30.0819 45.9187 30.1154 46.021 30.1366 46.1657Z" fill="white"/>
<path d="M35.5918 46.1604V49.9762C35.5918 50.0997 35.6042 50.1879 35.6289 50.2408C35.6571 50.2937 35.6994 50.3325 35.7559 50.3572L35.9094 50.4155C36.0223 50.4684 36.0787 50.5495 36.0787 50.6589C36.0787 50.8459 35.9641 50.9394 35.7347 50.9394H33.5331C33.4166 50.9394 33.332 50.9165 33.279 50.8706C33.2261 50.8212 33.1997 50.7559 33.1997 50.6748C33.1997 50.6148 33.2155 50.5636 33.2473 50.5213C33.279 50.4754 33.332 50.4384 33.4061 50.4102L33.5701 50.3572C33.6266 50.3361 33.6672 50.299 33.6919 50.2461C33.7201 50.1896 33.7342 50.0997 33.7342 49.9762V47.1871C33.7342 47.0883 33.7201 47.0177 33.6919 46.9754C33.6636 46.9331 33.6195 46.9048 33.5595 46.8907L33.3584 46.8643C33.2914 46.8431 33.242 46.8149 33.2102 46.7796C33.182 46.7408 33.1679 46.6914 33.1679 46.6314C33.1679 46.5608 33.1873 46.5061 33.2261 46.4673C33.2649 46.425 33.339 46.3826 33.4484 46.3403L34.5439 45.9328C34.6992 45.8728 34.8227 45.8305 34.9144 45.8058C35.0097 45.7775 35.1014 45.7634 35.1896 45.7634C35.3202 45.7634 35.4189 45.8005 35.486 45.8746C35.5565 45.9487 35.5918 46.0439 35.5918 46.1604ZM35.4172 47.3935L35.142 47.1077L35.3272 46.9383C35.7965 46.4973 36.2057 46.1903 36.555 46.0175C36.9043 45.841 37.2289 45.7528 37.5288 45.7528C37.9875 45.7528 38.358 45.9028 38.6403 46.2027C38.9225 46.4991 39.0636 46.8942 39.0636 47.3882V49.9709C39.0636 50.0944 39.076 50.1844 39.1007 50.2408C39.1289 50.2973 39.173 50.3361 39.233 50.3572L39.3865 50.4102C39.4606 50.4384 39.5135 50.4754 39.5453 50.5213C39.577 50.5636 39.5929 50.6148 39.5929 50.6748C39.5929 50.7559 39.5664 50.8212 39.5135 50.8706C39.4606 50.9165 39.3759 50.9394 39.2595 50.9394H37.0578C36.8285 50.9394 36.7138 50.8459 36.7138 50.6589C36.7138 50.5495 36.7685 50.4684 36.8779 50.4155L37.0367 50.3572C37.0966 50.3325 37.139 50.2937 37.1637 50.2408C37.1919 50.1844 37.206 50.0944 37.206 49.9709V47.6528C37.206 47.3847 37.1407 47.1853 37.0102 47.0548C36.8832 46.9207 36.7103 46.8537 36.4915 46.8537C36.3539 46.8537 36.2093 46.8837 36.0576 46.9436C35.9058 47.0036 35.7594 47.0954 35.6183 47.2188L35.4172 47.3935Z" fill="white"/>
<path d="M43.3995 50.2461V50.1297L43.2672 50.1191V46.8219C43.2672 46.6314 43.2161 46.4814 43.1137 46.3721C43.0149 46.2627 42.8791 46.208 42.7062 46.208C42.5545 46.208 42.4328 46.2415 42.341 46.3085C42.2528 46.3756 42.2087 46.4603 42.2087 46.5626V47.0865C42.2087 47.3406 42.1223 47.5364 41.9494 47.674C41.7765 47.8116 41.5331 47.8804 41.2191 47.8804C40.9509 47.8804 40.7498 47.8222 40.6157 47.7057C40.4816 47.5858 40.4146 47.42 40.4146 47.2083C40.4146 46.9824 40.5116 46.7584 40.7057 46.5361C40.9033 46.3103 41.1961 46.1251 41.5842 45.9804C41.9759 45.8322 42.461 45.7581 43.0396 45.7581C43.7382 45.7581 44.2569 45.8922 44.5956 46.1604C44.9343 46.4285 45.1037 46.7919 45.1037 47.2506V49.8968C45.1037 49.9779 45.1213 50.0432 45.1566 50.0926C45.1954 50.1385 45.2519 50.1614 45.326 50.1614C45.393 50.1614 45.4442 50.1438 45.4794 50.1085C45.5183 50.0732 45.5535 50.0379 45.5853 50.0026C45.6065 49.9779 45.6276 49.9585 45.6488 49.9444C45.6735 49.9268 45.7017 49.918 45.7335 49.918C45.7864 49.918 45.8235 49.9374 45.8446 49.9762C45.8693 50.0115 45.8817 50.0573 45.8817 50.1138C45.8817 50.2514 45.8323 50.3943 45.7335 50.5425C45.6382 50.6907 45.4936 50.8177 45.2995 50.9235C45.1054 51.0258 44.8638 51.077 44.5744 51.077C44.2216 51.077 43.9376 51.0011 43.7224 50.8494C43.5071 50.6942 43.3995 50.4931 43.3995 50.2461ZM40.2082 49.8227C40.2082 49.364 40.4146 48.9971 40.8274 48.7219C41.2402 48.4467 41.8206 48.3091 42.5686 48.3091C42.7874 48.3091 42.9814 48.3267 43.1508 48.362C43.3201 48.3938 43.463 48.4396 43.5795 48.4996L43.4313 48.8912C43.3325 48.8418 43.2355 48.8048 43.1402 48.7801C43.0485 48.7519 42.9461 48.7378 42.8332 48.7378C42.6004 48.7378 42.4169 48.8048 42.2828 48.9389C42.1523 49.0729 42.087 49.2617 42.087 49.5052C42.087 49.7521 42.147 49.9409 42.267 50.0714C42.3869 50.202 42.5422 50.2673 42.7327 50.2673C42.8773 50.2673 43.0149 50.2337 43.1455 50.1667C43.2796 50.0961 43.3889 50.0079 43.4736 49.9021L43.5901 50.2567C43.4101 50.5178 43.1578 50.7206 42.8332 50.8653C42.5122 51.0064 42.1682 51.077 41.8012 51.077C41.3249 51.077 40.9403 50.9606 40.6475 50.7277C40.3546 50.4913 40.2082 50.1896 40.2082 49.8227Z" fill="white"/>
<path d="M48.7091 43.4083V49.9762C48.7091 50.0997 48.7215 50.1896 48.7462 50.2461C48.7744 50.299 48.8185 50.3361 48.8785 50.3572L49.0373 50.4102C49.1114 50.4384 49.1643 50.4754 49.196 50.5213C49.2278 50.5636 49.2437 50.6148 49.2437 50.6748C49.2437 50.7559 49.2172 50.8212 49.1643 50.8706C49.1114 50.9165 49.0249 50.9394 48.905 50.9394H46.6557C46.5357 50.9394 46.4493 50.9165 46.3964 50.8706C46.3434 50.8212 46.317 50.7559 46.317 50.6748C46.317 50.6148 46.3328 50.5636 46.3646 50.5213C46.3964 50.4754 46.4493 50.4384 46.5234 50.4102L46.6874 50.3572C46.7474 50.3361 46.7898 50.299 46.8145 50.2461C46.8392 50.1896 46.8515 50.0997 46.8515 49.9762V44.435C46.8515 44.3362 46.8374 44.2657 46.8092 44.2233C46.7809 44.1775 46.7368 44.1492 46.6769 44.1387L46.481 44.1069C46.4105 44.0893 46.3593 44.061 46.3276 44.0222C46.2993 43.9834 46.2852 43.9358 46.2852 43.8793C46.2852 43.8088 46.3046 43.7523 46.3434 43.71C46.3822 43.6676 46.4563 43.6271 46.5657 43.5883L47.6665 43.1754C47.8253 43.1155 47.9506 43.0731 48.0423 43.0484C48.1376 43.0237 48.2205 43.0114 48.291 43.0114C48.4322 43.0114 48.5363 43.0484 48.6033 43.1225C48.6739 43.1966 48.7091 43.2919 48.7091 43.4083Z" fill="white"/>
<path d="M14.7658 72.7812C14.8716 72.7812 14.9563 72.8156 15.0198 72.8844C15.0886 72.9479 15.123 73.0326 15.123 73.1384C15.123 73.2442 15.0886 73.3316 15.0198 73.4004C14.9563 73.4639 14.8716 73.4956 14.7658 73.4956C14.6599 73.4956 14.5726 73.4639 14.5038 73.4004C14.4403 73.3316 14.4086 73.2442 14.4086 73.1384C14.4086 73.0326 14.4403 72.9479 14.5038 72.8844C14.5726 72.8156 14.6599 72.7812 14.7658 72.7812Z" fill="white"/>
<path d="M0.213013 88.6478L2.31542 83.4612H3.19528L5.29769 88.6478H4.51045L3.95474 87.2308H1.55596L1.00026 88.6478H0.213013ZM1.80603 86.5917H3.70468L2.75998 84.1096L1.80603 86.5917Z" fill="black"/>
<path d="M6.65663 88.6478V83.4612H8.74051C9.38266 83.4612 9.85192 83.5878 10.1483 83.841C10.4447 84.0879 10.5929 84.4337 10.5929 84.8783C10.5929 85.1561 10.5095 85.4 10.3428 85.61C10.1761 85.8137 9.94763 85.9496 9.65743 86.0175V86.0267C10.0217 86.0576 10.2934 86.1934 10.4725 86.4342C10.6515 86.6689 10.741 86.9313 10.741 87.2215C10.741 87.6599 10.5682 88.0087 10.2224 88.2681C9.88279 88.5212 9.39192 88.6478 8.74978 88.6478H6.65663ZM7.39757 88.018H8.86092C9.23756 88.018 9.52159 87.947 9.713 87.805C9.9044 87.663 10.0001 87.4561 10.0001 87.1844C10.0001 86.9128 9.9044 86.7059 9.713 86.5639C9.52159 86.4219 9.23756 86.3509 8.86092 86.3509H7.39757V88.018ZM7.39757 85.7211H8.79609C9.14186 85.7211 9.40427 85.6563 9.58333 85.5266C9.76239 85.3908 9.85192 85.1839 9.85192 84.9061C9.85192 84.6344 9.76239 84.4306 9.58333 84.2948C9.40427 84.159 9.14186 84.091 8.79609 84.091H7.39757V85.7211Z" fill="black"/>
<path d="M14.6659 88.7219C14.1411 88.7219 13.6873 88.6138 13.3044 88.3977C12.9216 88.1816 12.6252 87.876 12.4153 87.4808C12.2116 87.0795 12.1097 86.604 12.1097 86.0545C12.1097 85.505 12.2116 85.0326 12.4153 84.6375C12.6252 84.2361 12.9216 83.9274 13.3044 83.7113C13.6873 83.4952 14.1411 83.3871 14.6659 83.3871C15.1907 83.3871 15.6446 83.4952 16.0274 83.7113C16.4102 83.9274 16.7035 84.2361 16.9072 84.6375C17.1172 85.0326 17.2221 85.505 17.2221 86.0545C17.2221 86.604 17.1172 87.0795 16.9072 87.4808C16.7035 87.876 16.4102 88.1816 16.0274 88.3977C15.6446 88.6138 15.1907 88.7219 14.6659 88.7219ZM14.6659 88.0828C15.0364 88.0828 15.3575 88.0026 15.6291 87.842C15.9008 87.6815 16.1107 87.4499 16.2589 87.1474C16.4071 86.8449 16.4812 86.4806 16.4812 86.0545C16.4812 85.6285 16.4071 85.2642 16.2589 84.9616C16.1107 84.6591 15.9008 84.4275 15.6291 84.267C15.3575 84.1065 15.0364 84.0262 14.6659 84.0262C14.2954 84.0262 13.9744 84.1065 13.7027 84.267C13.431 84.4275 13.2211 84.6591 13.0729 84.9616C12.9247 85.2642 12.8506 85.6285 12.8506 86.0545C12.8506 86.4806 12.9247 86.8449 13.0729 87.1474C13.2211 87.4499 13.431 87.6815 13.7027 87.842C13.9744 88.0026 14.2954 88.0828 14.6659 88.0828Z" fill="black"/>
<path d="M21.1294 88.7219C20.6231 88.7219 20.1786 88.6169 19.7957 88.407C19.4191 88.1909 19.1258 87.8822 18.9159 87.4808C18.7121 87.0795 18.6102 86.604 18.6102 86.0545C18.6102 85.505 18.7152 85.0326 18.9251 84.6375C19.1412 84.2361 19.4407 83.9274 19.8235 83.7113C20.2063 83.4952 20.6571 83.3871 21.1757 83.3871C21.7376 83.3871 22.1945 83.489 22.5465 83.6928C22.9046 83.8904 23.1886 84.1991 23.3986 84.619L22.7317 84.9894C22.6144 84.6622 22.4199 84.4214 22.1482 84.267C21.8827 84.1065 21.5616 84.0262 21.185 84.0262C20.8269 84.0262 20.5089 84.1065 20.231 84.267C19.9532 84.4275 19.7371 84.6591 19.5827 84.9616C19.4284 85.2642 19.3512 85.6285 19.3512 86.0545C19.3512 86.4806 19.4222 86.8449 19.5642 87.1474C19.7124 87.4499 19.9223 87.6815 20.194 87.842C20.4718 88.0026 20.8053 88.0828 21.1943 88.0828C21.4289 88.0828 21.6419 88.055 21.8333 87.9995C22.0247 87.9377 22.1884 87.8513 22.3242 87.7401C22.4662 87.629 22.5743 87.4963 22.6484 87.3419C22.7224 87.1814 22.7595 87.0023 22.7595 86.8047V86.6195H21.0924V86.0082H23.4634V88.6478H22.8799L22.8521 87.9254C22.6977 88.1724 22.4755 88.3669 22.1853 88.5089C21.9012 88.6509 21.5493 88.7219 21.1294 88.7219Z" fill="black"/>
<path d="M24.5691 88.6478L26.6716 83.4612H27.5514L29.6538 88.6478H28.8666L28.3109 87.2308H25.9121L25.3564 88.6478H24.5691ZM26.1622 86.5917H28.0608L27.1161 84.1096L26.1622 86.5917Z" fill="black"/>
<path d="M31.0128 88.6478V83.4612H32.8651C33.7295 83.4612 34.3995 83.6866 34.8749 84.1373C35.3503 84.5819 35.588 85.2179 35.588 86.0453C35.588 86.885 35.3503 87.5302 34.8749 87.981C34.3995 88.4255 33.7295 88.6478 32.8651 88.6478H31.0128ZM31.7537 88.0087H32.9207C33.5381 88.0087 34.0136 87.8389 34.347 87.4993C34.6804 87.1536 34.8471 86.6689 34.8471 86.0453C34.8471 85.4216 34.6804 84.9431 34.347 84.6097C34.0136 84.2701 33.5381 84.1003 32.9207 84.1003H31.7537V88.0087Z" fill="black"/>
<path d="M39.5376 88.7219C39.0128 88.7219 38.5589 88.6138 38.1761 88.3977C37.7933 88.1816 37.4969 87.876 37.287 87.4808C37.0832 87.0795 36.9814 86.604 36.9814 86.0545C36.9814 85.505 37.0832 85.0326 37.287 84.6375C37.4969 84.2361 37.7933 83.9274 38.1761 83.7113C38.5589 83.4952 39.0128 83.3871 39.5376 83.3871C40.0624 83.3871 40.5162 83.4952 40.8991 83.7113C41.2819 83.9274 41.5752 84.2361 41.7789 84.6375C41.9889 85.0326 42.0938 85.505 42.0938 86.0545C42.0938 86.604 41.9889 87.0795 41.7789 87.4808C41.5752 87.876 41.2819 88.1816 40.8991 88.3977C40.5162 88.6138 40.0624 88.7219 39.5376 88.7219ZM39.5376 88.0828C39.9081 88.0828 40.2291 88.0026 40.5008 87.842C40.7725 87.6815 40.9824 87.4499 41.1306 87.1474C41.2788 86.8449 41.3529 86.4806 41.3529 86.0545C41.3529 85.6285 41.2788 85.2642 41.1306 84.9616C40.9824 84.6591 40.7725 84.4275 40.5008 84.267C40.2291 84.1065 39.9081 84.0262 39.5376 84.0262C39.1671 84.0262 38.846 84.1065 38.5744 84.267C38.3027 84.4275 38.0928 84.6591 37.9446 84.9616C37.7964 85.2642 37.7223 85.6285 37.7223 86.0545C37.7223 86.4806 37.7964 86.8449 37.9446 87.1474C38.0928 87.4499 38.3027 87.6815 38.5744 87.842C38.846 88.0026 39.1671 88.0828 39.5376 88.0828Z" fill="black"/>
<path d="M45.6584 88.7219C45.0657 88.7219 44.5779 88.62 44.1951 88.4163C43.8123 88.2125 43.522 87.9501 43.3245 87.629L43.8802 87.1196C44.0222 87.4222 44.2476 87.6599 44.5563 87.8328C44.865 87.9995 45.2447 88.0828 45.6955 88.0828C45.9795 88.0828 46.2203 88.055 46.4179 87.9995C46.6216 87.9377 46.776 87.8513 46.881 87.7401C46.9921 87.6228 47.0477 87.4777 47.0477 87.3048C47.0477 87.1628 47.0075 87.0424 46.9273 86.9436C46.8532 86.8449 46.7482 86.7615 46.6124 86.6936C46.4827 86.6257 46.3314 86.5763 46.1586 86.5454L45.0286 86.3138C44.7631 86.2583 44.5161 86.1811 44.2877 86.0823C44.0592 85.9835 43.874 85.8446 43.732 85.6655C43.5961 85.4803 43.5282 85.2395 43.5282 84.9431C43.5282 84.6591 43.6116 84.3998 43.7783 84.1651C43.945 83.9305 44.1827 83.7422 44.4914 83.6002C44.8063 83.4582 45.1799 83.3871 45.6121 83.3871C45.9517 83.3871 46.2543 83.4273 46.5198 83.5075C46.7853 83.5816 47.0199 83.699 47.2237 83.8595C47.4274 84.02 47.6034 84.2207 47.7516 84.4615L47.1959 84.9616C47.0847 84.7394 46.9551 84.5603 46.8069 84.4245C46.6649 84.2824 46.4951 84.1806 46.2975 84.1188C46.1061 84.0571 45.8745 84.0262 45.6028 84.0262C45.183 84.0262 44.8557 84.1126 44.6211 84.2855C44.3865 84.4584 44.2692 84.6622 44.2692 84.8968C44.2692 85.045 44.3062 85.1654 44.3803 85.258C44.4606 85.3506 44.5686 85.4278 44.7045 85.4896C44.8465 85.5451 45.0039 85.5914 45.1768 85.6285L46.3808 85.8785C46.634 85.9279 46.8655 86.0051 47.0755 86.1101C47.2916 86.2151 47.4645 86.3571 47.5941 86.5361C47.7238 86.709 47.7886 86.9344 47.7886 87.2122C47.7886 87.521 47.6991 87.7895 47.52 88.018C47.341 88.2465 47.0909 88.4224 46.7698 88.5459C46.4549 88.6632 46.0845 88.7219 45.6584 88.7219Z" fill="black"/>
<path d="M57.3371 87.2493C57.2569 87.5704 57.1087 87.842 56.8926 88.0643C56.6765 88.2804 56.411 88.444 56.0961 88.5552C55.7812 88.6663 55.4323 88.7219 55.0495 88.7219C54.5494 88.7219 54.111 88.6138 53.7343 88.3977C53.3577 88.1816 53.0644 87.876 52.8545 87.4808C52.6445 87.0795 52.5396 86.604 52.5396 86.0545C52.5396 85.505 52.6445 85.0326 52.8545 84.6375C53.0644 84.2361 53.3577 83.9274 53.7343 83.7113C54.1172 83.4952 54.5648 83.3871 55.0773 83.3871C55.4478 83.3871 55.7781 83.4396 56.0683 83.5446C56.3585 83.6496 56.6024 83.807 56.8 84.0169C57.0037 84.2207 57.1519 84.48 57.2445 84.7949L56.5406 85.1098C56.448 84.7394 56.2844 84.4677 56.0498 84.2948C55.8213 84.1157 55.491 84.0262 55.0588 84.0262C54.7068 84.0262 54.395 84.1065 54.1233 84.267C53.8578 84.4275 53.651 84.6591 53.5028 84.9616C53.3546 85.2642 53.2805 85.6285 53.2805 86.0545C53.2805 86.4806 53.3546 86.8449 53.5028 87.1474C53.6572 87.4499 53.864 87.6815 54.1233 87.842C54.3888 88.0026 54.6883 88.0828 55.0217 88.0828C55.5033 88.0828 55.8738 87.9933 56.1331 87.8142C56.3925 87.6352 56.5561 87.3666 56.624 87.0085L57.3371 87.2493Z" fill="black"/>
<path d="M61.0627 88.7219C60.5379 88.7219 60.0841 88.6138 59.7013 88.3977C59.3185 88.1816 59.0221 87.876 58.8121 87.4808C58.6084 87.0795 58.5065 86.604 58.5065 86.0545C58.5065 85.505 58.6084 85.0326 58.8121 84.6375C59.0221 84.2361 59.3185 83.9274 59.7013 83.7113C60.0841 83.4952 60.5379 83.3871 61.0627 83.3871C61.5876 83.3871 62.0414 83.4952 62.4242 83.7113C62.807 83.9274 63.1003 84.2361 63.3041 84.6375C63.514 85.0326 63.619 85.505 63.619 86.0545C63.619 86.604 63.514 87.0795 63.3041 87.4808C63.1003 87.876 62.807 88.1816 62.4242 88.3977C62.0414 88.6138 61.5876 88.7219 61.0627 88.7219ZM61.0627 88.0828C61.4332 88.0828 61.7543 88.0026 62.026 87.842C62.2976 87.6815 62.5076 87.4499 62.6558 87.1474C62.8039 86.8449 62.878 86.4806 62.878 86.0545C62.878 85.6285 62.8039 85.2642 62.6558 84.9616C62.5076 84.6591 62.2976 84.4275 62.026 84.267C61.7543 84.1065 61.4332 84.0262 61.0627 84.0262C60.6923 84.0262 60.3712 84.1065 60.0995 84.267C59.8278 84.4275 59.6179 84.6591 59.4697 84.9616C59.3215 85.2642 59.2474 85.6285 59.2474 86.0545C59.2474 86.4806 59.3215 86.8449 59.4697 87.1474C59.6179 87.4499 59.8278 87.6815 60.0995 87.842C60.3712 88.0026 60.6923 88.0828 61.0627 88.0828Z" fill="black"/>
<path d="M69.7028 83.4612V88.6478H68.7118L66.4519 85.0172L66.0073 84.23H65.9981L66.0351 84.8783V88.6478H65.322V83.4612H66.313L68.5728 87.1011L69.0174 87.8791H69.0267L68.9896 87.2308V83.4612H69.7028Z" fill="black"/>
<path d="M73.5846 88.7219C72.9919 88.7219 72.5041 88.62 72.1213 88.4163C71.7385 88.2125 71.4483 87.9501 71.2507 87.629L71.8064 87.1196C71.9484 87.4222 72.1738 87.6599 72.4825 87.8328C72.7912 87.9995 73.171 88.0828 73.6217 88.0828C73.9057 88.0828 74.1465 88.055 74.3441 87.9995C74.5479 87.9377 74.7022 87.8513 74.8072 87.7401C74.9183 87.6228 74.9739 87.4777 74.9739 87.3048C74.9739 87.1628 74.9338 87.0424 74.8535 86.9436C74.7794 86.8449 74.6744 86.7615 74.5386 86.6936C74.4089 86.6257 74.2577 86.5763 74.0848 86.5454L72.9548 86.3138C72.6893 86.2583 72.4424 86.1811 72.2139 86.0823C71.9855 85.9835 71.8002 85.8446 71.6582 85.6655C71.5224 85.4803 71.4545 85.2395 71.4545 84.9431C71.4545 84.6591 71.5378 84.3998 71.7045 84.1651C71.8712 83.9305 72.1089 83.7422 72.4177 83.6002C72.7326 83.4582 73.1061 83.3871 73.5383 83.3871C73.8779 83.3871 74.1805 83.4273 74.446 83.5075C74.7115 83.5816 74.9461 83.699 75.1499 83.8595C75.3536 84.02 75.5296 84.2207 75.6778 84.4615L75.1221 84.9616C75.011 84.7394 74.8813 84.5603 74.7331 84.4245C74.5911 84.2824 74.4213 84.1806 74.2237 84.1188C74.0323 84.0571 73.8008 84.0262 73.5291 84.0262C73.1092 84.0262 72.782 84.1126 72.5473 84.2855C72.3127 84.4584 72.1954 84.6622 72.1954 84.8968C72.1954 85.045 72.2324 85.1654 72.3065 85.258C72.3868 85.3506 72.4949 85.4278 72.6307 85.4896C72.7727 85.5451 72.9302 85.5914 73.103 85.6285L74.3071 85.8785C74.5602 85.9279 74.7918 86.0051 75.0017 86.1101C75.2178 86.2151 75.3907 86.3571 75.5203 86.5361C75.65 86.709 75.7148 86.9344 75.7148 87.2122C75.7148 87.521 75.6253 87.7895 75.4463 88.018C75.2672 88.2465 75.0171 88.4224 74.6961 88.5459C74.3812 88.6632 74.0107 88.7219 73.5846 88.7219Z" fill="black"/>
<path d="M81.6622 83.4612V86.6843C81.6622 87.3573 81.4739 87.8667 81.0973 88.2125C80.7206 88.5521 80.1773 88.7219 79.4672 88.7219C78.7633 88.7219 78.2231 88.5521 77.8464 88.2125C77.4698 87.8667 77.2814 87.3573 77.2814 86.6843V83.4612H78.0224V86.5824C78.0224 87.0887 78.1397 87.4654 78.3743 87.7124C78.6151 87.9593 78.9794 88.0828 79.4672 88.0828C79.9612 88.0828 80.3255 87.9593 80.5601 87.7124C80.8009 87.4654 80.9213 87.0887 80.9213 86.5824V83.4612H81.6622Z" fill="black"/>
<path d="M84.3617 88.0087H87.4551V88.6478H83.6207V83.4612H84.3617V88.0087Z" fill="black"/>
<path d="M90.0067 83.7484V88.6478H89.2657V83.7484H90.0067ZM91.9053 83.4612V84.1003H87.3578V83.4612H91.9053Z" fill="black"/>
<path d="M95.3358 88.7219C94.8109 88.7219 94.3571 88.6138 93.9743 88.3977C93.5915 88.1816 93.2951 87.876 93.0852 87.4808C92.8814 87.0795 92.7795 86.604 92.7795 86.0545C92.7795 85.505 92.8814 85.0326 93.0852 84.6375C93.2951 84.2361 93.5915 83.9274 93.9743 83.7113C94.3571 83.4952 94.8109 83.3871 95.3358 83.3871C95.8606 83.3871 96.3144 83.4952 96.6972 83.7113C97.0801 83.9274 97.3733 84.2361 97.5771 84.6375C97.787 85.0326 97.892 85.505 97.892 86.0545C97.892 86.604 97.787 87.0795 97.5771 87.4808C97.3733 87.876 97.0801 88.1816 96.6972 88.3977C96.3144 88.6138 95.8606 88.7219 95.3358 88.7219ZM95.3358 88.0828C95.7062 88.0828 96.0273 88.0026 96.299 87.842C96.5707 87.6815 96.7806 87.4499 96.9288 87.1474C97.077 86.8449 97.1511 86.4806 97.1511 86.0545C97.1511 85.6285 97.077 85.2642 96.9288 84.9616C96.7806 84.6591 96.5707 84.4275 96.299 84.267C96.0273 84.1065 95.7062 84.0262 95.3358 84.0262C94.9653 84.0262 94.6442 84.1065 94.3726 84.267C94.1009 84.4275 93.8909 84.6591 93.7428 84.9616C93.5946 85.2642 93.5205 85.6285 93.5205 86.0545C93.5205 86.4806 93.5946 86.8449 93.7428 87.1474C93.8909 87.4499 94.1009 87.6815 94.3726 87.842C94.6442 88.0026 94.9653 88.0828 95.3358 88.0828Z" fill="black"/>
<path d="M99.595 88.6478V83.4612H101.753C102.321 83.4612 102.775 83.6002 103.114 83.878C103.454 84.1497 103.624 84.5232 103.624 84.9987C103.624 85.4803 103.454 85.8569 103.114 86.1286C102.775 86.4003 102.321 86.5361 101.753 86.5361H100.336V88.6478H99.595ZM103.087 88.6478L101.531 86.3694L102.16 86.0545L103.939 88.6478H103.087ZM100.336 85.9063H101.734C102.117 85.9063 102.404 85.8322 102.596 85.684C102.787 85.5359 102.883 85.3105 102.883 85.0079C102.883 84.7054 102.787 84.48 102.596 84.3318C102.404 84.1775 102.117 84.1003 101.734 84.1003H100.336V85.9063Z" fill="black"/>
<path d="M105.435 88.6478V83.4612H109.325V84.1003H106.176V85.7026H108.64V86.3416H106.176V88.0087H109.446V88.6478H105.435Z" fill="black"/>
<path d="M112.875 88.7219C112.282 88.7219 111.794 88.62 111.412 88.4163C111.029 88.2125 110.739 87.9501 110.541 87.629L111.097 87.1196C111.239 87.4222 111.464 87.6599 111.773 87.8328C112.081 87.9995 112.461 88.0828 112.912 88.0828C113.196 88.0828 113.437 88.055 113.634 87.9995C113.838 87.9377 113.992 87.8513 114.097 87.7401C114.209 87.6228 114.264 87.4777 114.264 87.3048C114.264 87.1628 114.224 87.0424 114.144 86.9436C114.07 86.8449 113.965 86.7615 113.829 86.6936C113.699 86.6257 113.548 86.5763 113.375 86.5454L112.245 86.3138C111.98 86.2583 111.733 86.1811 111.504 86.0823C111.276 85.9835 111.09 85.8446 110.948 85.6655C110.813 85.4803 110.745 85.2395 110.745 84.9431C110.745 84.6591 110.828 84.3998 110.995 84.1651C111.161 83.9305 111.399 83.7422 111.708 83.6002C112.023 83.4582 112.396 83.3871 112.829 83.3871C113.168 83.3871 113.471 83.4273 113.736 83.5075C114.002 83.5816 114.236 83.699 114.44 83.8595C114.644 84.02 114.82 84.2207 114.968 84.4615L114.412 84.9616C114.301 84.7394 114.172 84.5603 114.023 84.4245C113.881 84.2824 113.712 84.1806 113.514 84.1188C113.323 84.0571 113.091 84.0262 112.819 84.0262C112.399 84.0262 112.072 84.1126 111.838 84.2855C111.603 84.4584 111.486 84.6622 111.486 84.8968C111.486 85.045 111.523 85.1654 111.597 85.258C111.677 85.3506 111.785 85.4278 111.921 85.4896C112.063 85.5451 112.22 85.5914 112.393 85.6285L113.597 85.8785C113.85 85.9279 114.082 86.0051 114.292 86.1101C114.508 86.2151 114.681 86.3571 114.811 86.5361C114.94 86.709 115.005 86.9344 115.005 87.2122C115.005 87.521 114.916 87.7895 114.737 88.018C114.557 88.2465 114.307 88.4224 113.986 88.5459C113.671 88.6632 113.301 88.7219 112.875 88.7219Z" fill="black"/>
<path d="M116.998 87.5364C117.146 87.5364 117.269 87.5765 117.368 87.6568C117.473 87.7309 117.553 87.8359 117.609 87.9717C117.665 88.1014 117.692 88.2557 117.692 88.4348C117.692 88.6385 117.655 88.8392 117.581 89.0368C117.513 89.2344 117.405 89.4165 117.257 89.5832C117.109 89.7499 116.917 89.8889 116.683 90L116.294 89.6388C116.461 89.5832 116.606 89.506 116.729 89.4073C116.859 89.3085 116.964 89.1973 117.044 89.0738C117.124 88.9503 117.177 88.8238 117.202 88.6941L117.164 88.6756C117.14 88.6941 117.109 88.7095 117.072 88.7219C117.035 88.7342 116.979 88.7404 116.905 88.7404C116.831 88.7404 116.754 88.7188 116.674 88.6756C116.599 88.6324 116.535 88.5706 116.479 88.4903C116.424 88.4039 116.396 88.2928 116.396 88.1569C116.396 88.0458 116.424 87.9439 116.479 87.8513C116.535 87.7525 116.606 87.6753 116.692 87.6197C116.785 87.5642 116.887 87.5364 116.998 87.5364Z" fill="black"/>
<path d="M124.671 88.7219C124.078 88.7219 123.59 88.62 123.207 88.4163C122.824 88.2125 122.534 87.9501 122.337 87.629L122.892 87.1196C123.034 87.4222 123.26 87.6599 123.568 87.8328C123.877 87.9995 124.257 88.0828 124.708 88.0828C124.992 88.0828 125.232 88.055 125.43 87.9995C125.634 87.9377 125.788 87.8513 125.893 87.7401C126.004 87.6228 126.06 87.4777 126.06 87.3048C126.06 87.1628 126.02 87.0424 125.939 86.9436C125.865 86.8449 125.76 86.7615 125.625 86.6936C125.495 86.6257 125.344 86.5763 125.171 86.5454L124.041 86.3138C123.775 86.2583 123.528 86.1811 123.3 86.0823C123.071 85.9835 122.886 85.8446 122.744 85.6655C122.608 85.4803 122.54 85.2395 122.54 84.9431C122.54 84.6591 122.624 84.3998 122.79 84.1651C122.957 83.9305 123.195 83.7422 123.504 83.6002C123.818 83.4582 124.192 83.3871 124.624 83.3871C124.964 83.3871 125.266 83.4273 125.532 83.5075C125.797 83.5816 126.032 83.699 126.236 83.8595C126.44 84.02 126.616 84.2207 126.764 84.4615L126.208 84.9616C126.097 84.7394 125.967 84.5603 125.819 84.4245C125.677 84.2824 125.507 84.1806 125.31 84.1188C125.118 84.0571 124.887 84.0262 124.615 84.0262C124.195 84.0262 123.868 84.1126 123.633 84.2855C123.399 84.4584 123.281 84.6622 123.281 84.8968C123.281 85.045 123.318 85.1654 123.392 85.258C123.473 85.3506 123.581 85.4278 123.717 85.4896C123.859 85.5451 124.016 85.5914 124.189 85.6285L125.393 85.8785C125.646 85.9279 125.878 86.0051 126.088 86.1101C126.304 86.2151 126.477 86.3571 126.606 86.5361C126.736 86.709 126.801 86.9344 126.801 87.2122C126.801 87.521 126.711 87.7895 126.532 88.018C126.353 88.2465 126.103 88.4224 125.782 88.5459C125.467 88.6632 125.097 88.7219 124.671 88.7219Z" fill="black"/>
<path d="M128.793 87.5364C128.972 87.5364 129.118 87.592 129.229 87.7031C129.34 87.8142 129.395 87.9593 129.395 88.1384C129.395 88.3175 129.34 88.4626 129.229 88.5737C129.118 88.6848 128.972 88.7404 128.793 88.7404C128.614 88.7404 128.469 88.6848 128.358 88.5737C128.247 88.4626 128.191 88.3175 128.191 88.1384C128.191 87.9593 128.247 87.8142 128.358 87.7031C128.469 87.592 128.614 87.5364 128.793 87.5364Z" fill="black"/>
<path d="M135.354 87.2493C135.274 87.5704 135.126 87.842 134.91 88.0643C134.694 88.2804 134.428 88.444 134.113 88.5552C133.798 88.6663 133.45 88.7219 133.067 88.7219C132.567 88.7219 132.128 88.6138 131.752 88.3977C131.375 88.1816 131.082 87.876 130.872 87.4808C130.662 87.0795 130.557 86.604 130.557 86.0545C130.557 85.505 130.662 85.0326 130.872 84.6375C131.082 84.2361 131.375 83.9274 131.752 83.7113C132.134 83.4952 132.582 83.3871 133.095 83.3871C133.465 83.3871 133.795 83.4396 134.086 83.5446C134.376 83.6496 134.62 83.807 134.817 84.0169C135.021 84.2207 135.169 84.48 135.262 84.7949L134.558 85.1098C134.465 84.7394 134.302 84.4677 134.067 84.2948C133.839 84.1157 133.508 84.0262 133.076 84.0262C132.724 84.0262 132.412 84.1065 132.141 84.267C131.875 84.4275 131.668 84.6591 131.52 84.9616C131.372 85.2642 131.298 85.6285 131.298 86.0545C131.298 86.4806 131.372 86.8449 131.52 87.1474C131.674 87.4499 131.881 87.6815 132.141 87.842C132.406 88.0026 132.706 88.0828 133.039 88.0828C133.521 88.0828 133.891 87.9933 134.15 87.8142C134.41 87.6352 134.573 87.3666 134.641 87.0085L135.354 87.2493Z" fill="black"/>
</svg>
